<?xml version="1.0" standalone="no"?>
<!DOCTYPE svg PUBLIC "-//W3C//DTD SVG 20010904//EN"
  "http://www.w3.org/TR/2001/REC-SVG-20010904/DTD/svg10.dtd">
<svg width="3300px" height="4400px"
     xmlns="http://www.w3.org/2000/svg" xmlns:xlink="http://www.w3.org/1999/xlink">
  <defs>
    <symbol id="whiteCoin" >
      <desc>whiteCoin - cd blanc</desc>
      <circle cx='60' cy='60' r='60' fill='white' stroke='black'/>
      <circle cx='60' cy='60' r='7.5' fill='black' stroke='black'/>
    </symbol>
    <symbol id="blackCoin" >
      <desc>blackCoin - cd noir</desc>
      <circle cx='60' cy='60' r='60' fill='black' stroke='black'/>
      <circle cx='60' cy='60' r='7.5' fill='white' stroke='black'/>
    </symbol>
    <symbol id="island" >
      <desc>island</desc>
      <circle cx="300" cy="300" r="300" fill="yellow" />
      <circle cx="300" cy="300" r="200" fill="Chartreuse" />
      <rect x='175' y='175' width='250' height='250' fill='Chocolate'/>
      <use x="0" y="240" xlink:href="#whiteCoin" />
      <!--<use x="480" y="240" xlink:href="#whiteCoin" />-->
      <use x="240" y="0" xlink:href="#whiteCoin" />
      <use x="240" y="480" xlink:href="#blackCoin" />
      <use x="70" y="70" xlink:href="#whiteCoin" />
      <use x="410" y="70" xlink:href="#whiteCoin" />
      <use x="70" y="410" xlink:href="#whiteCoin" />
      <use x="410" y="410" xlink:href="#whiteCoin" />
      <!--interieur-->
      <use x="155" y="155" xlink:href="#whiteCoin" />
      <use x="325" y="155" xlink:href="#whiteCoin" />
      <use x="155" y="325" xlink:href="#whiteCoin" />
      <use x="325" y="325" xlink:href="#whiteCoin" />
     </symbol>
     <symbol id="palm-tree">
      <circle cx="75" cy="75" r="75" fill="Chartreuse" />
      <circle cx="75" cy="75" r="20" fill="Chocolate" />
    </symbol>
    <symbol id="peanut" >
      <use x="0" y="0" xlink:href="#island" />
      <use x="0" y="0" xlink:href="#island"  transform="matrix(-1,0,0,1,1400,0)"/>/>
      <!--<use x="0" y="240" xlink:href="#whiteCoin" />
      <use x="1280" y="240" xlink:href="#whiteCoin" />
    -->
    </symbol>
    <symbol id="blackline" >
      <desc>blackline</desc>
      <rect x='0' y='0' width='150' height='20' fill='black'/>
      <rect x='130' y='20' width='20' height='1530' fill='black'/>
    </symbol>
    <symbol id="goldBar" >
      <desc>goldBar</desc>
      <rect x='0' y='0' width='70' height='150' fill='Gold' stroke='black'/>
      <rect x='14' y='28' width='44' height='94' fill='Gold' stroke='black'/>
    </symbol>
    <symbol id="boat" >
      <desc>boat</desc>
      <use x="500" y="450" xlink:href="#blackline"/>
      <use x="0" y="0" xlink:href="#goldBar" transform="translate(388,785) rotate(3)"/>
      <path d="M 0,518 L 400,518 L 325,2000 L 0,2000 Z" fill="Chocolate"/>
      <path d="M 325,2000 L 363,1250 L 381,1250 L 343,2000 Z" fill="Brown"/>
      <rect x="0" y="1390" width="340" height="610" fill="grey" stroke='black' stroke-width="6"/>
    </symbol>
    <symbol id="playGround" >
      <desc>playGround - terrain</desc>
      <path d="M 1100,0 a 400 400 0 0 0 800,0 Z" fill="yellow"/>
      <path d="M 1200,0 a 200 200 0 0 0 600,0 Z" fill="Chartreuse"/>
      <rect x='0' y='0' width='500' height='500' stroke='black' fill="Orchid" />
      <rect x='2500' y='0' width='500' height='500' stroke='black' fill="Tomato" />
      <rect x='0' y='0' width='3000px' height='2000px' stroke='black' fill='none'/>
      <rect x='0' y='500' width='400' height='18' stroke='black' fill='Maroon'/>
      <rect x='2600' y='500' width='400' height='18' stroke='black' fill='Maroon'/>

      <use x="800" y="700" xlink:href="#peanut"/>
      <use x="1425" y="925" xlink:href="#palm-tree"/>
      <use x="0" y="0" xlink:href="#boat" transform="matrix(1,0,0,1,1,1)"/>
      <use x="0" y="0" xlink:href="#boat" transform="matrix(-1,0,0,1,3000,1)"/>
      <use x="940" y="440" xlink:href="#whiteCoin" />
      <use x="1940" y="440" xlink:href="#whiteCoin" />
      <use x="390" y="1640" xlink:href="#whiteCoin" />
      <use x="2490" y="1640" xlink:href="#whiteCoin" />

      <use x="1440" y="1560" xlink:href="#whiteCoin" />
      <use x="1440" y="1720" xlink:href="#whiteCoin" />
      <use x="1350" y="1640" xlink:href="#blackCoin" />
      <use x="1530" y="1640" xlink:href="#blackCoin" />

      <use x="0" y="0" xlink:href="#goldBar" transform="translate(1575,1308) rotate(90)"/>

      <rect x='630' y='1956' width='22' height='44' fill='Orchid'/>
      <rect x='2349' y='1956' width='22' height='44' fill='Tomato'/>
      <rect x='1106' y='1956' width='22' height='44' fill='Tomato'/>
      <rect x='1872' y='1956' width='22' height='44' fill='Orchid'/>
    </symbol>
  </defs>

    <g transform="translate(200,2200)">
        /*terrain du haut*/
        <use x="0" y="0" xlink:href="#playGround" />
    </g>

    <g transform="translate(3200,2200) rotate(180)">
        <use x="0" y="0" xlink:href="#playGround" />
    </g>
</svg>
