<?xml version="1.0" standalone="no"?>
<!DOCTYPE svg PUBLIC "-//W3C//DTD SVG 20010904//EN"
  "http://www.w3.org/TR/2001/REC-SVG-20010904/DTD/svg10.dtd">
<svg width="3300px" height="4400px"
     xmlns="http://www.w3.org/2000/svg" xmlns:xlink="http://www.w3.org/1999/xlink">
  <defs>
    <symbol id="glass" >
      <desc>glass</desc>
      <circle cx='40' cy='40' r='40' fill='grey' stroke='black'/>
      <circle cx='40' cy='40' r='36' fill='Chocolate' stroke='black'/>
      <circle cx='40' cy='40' r='5' fill='black' stroke='black'/>
    </symbol>
	<symbol id="cake" >
      <desc>cake</desc>
      <circle cx='750' cy='0' r='500' fill='pink' stroke='black'/>
      <circle cx='750' cy='0' r='400' fill='Chocolate' stroke='black'/>
	  <circle cx='750' cy='0' r='300' fill='pink' stroke='black'/>
	  <circle cx='750' cy='0' r='200' fill='pink' stroke='black' stroke-width="5"/>
	  <circle cx='750' cy='0' r='10' fill='black' stroke='black'/>
    </symbol>
    <symbol id="blackline" >
      <desc>blackline</desc>
      <rect x='0' y='0' width='610' height='20' fill='black'/>
      <rect x='590' y='20' width='20' height='1390' fill='black'/>
	  <rect x='1790' y='1120' width='20' height='290' fill='black'/>
	  <rect x='590' y='100' width='908' height='20' fill='black'/>
	  <rect x='590' y='1100' width='908' height='20' fill='black'/>
    </symbol>
	<symbol id="gift" >
      <desc>gift</desc>
      <rect x='0' y='0' width='150' height='20' fill='blue'/>
      <rect x='160' y='0' width='150' height='20' fill='red'/>
    </symbol>
	<symbol id="plate" >
      <desc>plate</desc>
      <rect x='0' y='0' width='170' height='170' fill="grey" stroke='black' />
      <rect x='20' y='20' width='130' height='130' fill="Chocolate" stroke='black' />
    </symbol>
    <symbol id="blue_start" >
      <desc>blue_start</desc>
      <rect x="0" y="0" width="400" height="100" fill="white" stroke='black' />
	  <rect x="0" y="100" width="400" height="300" fill="blue" stroke='black' />
	  <rect x="0" y="400" width="400" height="400" fill="white" stroke='black' />
	  <rect x="0" y="800" width="400" height="400" fill="blue" stroke='black' />
	  <rect x="0" y="1200" width="400" height="400" fill="white" stroke='black' />
	  <rect x="0" y="1600" width="400" height="400" fill="blue" stroke='black' />
	  <rect x="0" y="1900" width="400" height="100" fill="white" stroke='black' />
      <use x="0" y="590" xlink:href="#blackline"/>
	  <use x="860" y="910" xlink:href="#glass" />
	  <use x="1160" y="910" xlink:href="#glass" />
	  <use x="860" y="1410" xlink:href="#glass" />
	  <use x="1160" y="1410" xlink:href="#glass" />
	  <use x="1010" y="1160" xlink:href="#glass" />
	  <use x="1310" y="1160" xlink:href="#glass" />
	  	  <use x="115" y="165" xlink:href="#plate" />
		  <use x="115" y="515" xlink:href="#plate" />
		  <use x="115" y="915" xlink:href="#plate" />
		  <use x="115" y="1665" xlink:href="#plate" />
    </symbol>
	<symbol id="red_start" >
      <desc>red_start</desc>
      <rect x="0" y="0" width="400" height="100" fill="white" stroke='black' />
	  <rect x="0" y="100" width="400" height="300" fill="red" stroke='black' />
	  <rect x="0" y="400" width="400" height="400" fill="white" stroke='black' />
	  <rect x="0" y="800" width="400" height="400" fill="red" stroke='black' />
	  <rect x="0" y="1200" width="400" height="400" fill="white" stroke='black' />
	  <rect x="0" y="1600" width="400" height="400" fill="red" stroke='black' />
	  <rect x="0" y="1900" width="400" height="100" fill="white" stroke='black' />
	  <use x="0" y="590" xlink:href="#blackline"/>
	  <use x="860" y="910" xlink:href="#glass" />
	  <use x="1160" y="910" xlink:href="#glass" />
	  <use x="860" y="1410" xlink:href="#glass" />
	  <use x="1160" y="1410" xlink:href="#glass" />
	  <use x="1010" y="1160" xlink:href="#glass" />
	  <use x="1310" y="1160" xlink:href="#glass" />
	  	  <use x="115" y="165" xlink:href="#plate" />
		  <use x="115" y="1315" xlink:href="#plate" />
		  <use x="115" y="915" xlink:href="#plate" />
		  <use x="115" y="1665" xlink:href="#plate" />
    </symbol>
    <symbol id="playGround" >
      <desc>playGround - terrain</desc>
 <use x="750" y="0" xlink:href="#cake" />     
	 <rect x='0' y='0' width='3000px' height='2000px' stroke='black' fill='none'/>
	 <rect x='600' y='0' width='1800px' height='2000px' stroke='black' fill='none'/>

	   
      <rect x='0' y='500' width='400' height='18' stroke='black' fill='Maroon'/>
      <rect x='2600' y='500' width='400' height='18' stroke='black' fill='Maroon'/>
      <use x="0" y="0" xlink:href="#blue_start" transform="matrix(1,0,0,1,1,1)"/>
      <use x="0" y="0" xlink:href="#red_start" transform="matrix(-1,0,0,1,3000,1)"/>

	<use x="0" y="0" xlink:href="#goldBar" transform="translate(1575,1308) rotate(90)"/>
	<use x="0" y="0" xlink:href="#gift" transform="translate(445,1980)"/>
	<use x="0" y="0" xlink:href="#gift" transform="translate(1045,1980)"/>
	<use x="0" y="0" xlink:href="#gift" transform="translate(1645,1980)"/>
	<use x="0" y="0" xlink:href="#gift" transform="translate(2245,1980)"/>
    </symbol>
  </defs>

    <g transform="translate(200,2200)">
        /*terrain du haut*/
        <use x="0" y="0" xlink:href="#playGround" />
    </g>
    <g transform="translate(3200,2200) rotate(180)">
        <use x="0" y="0" xlink:href="#playGround" />
    </g>
</svg>
