<?xml version="1.0" standalone="no"?>
<!DOCTYPE svg PUBLIC "-//W3C//DTD SVG 20010904//EN"
"http://www.w3.org/TR/2001/REC-SVG-20010904/DTD/svg10.dtd">
<svg width="3300px" height="4400px"
xmlns="http://www.w3.org/2000/svg" xmlns:xlink="http://www.w3.org/1999/xlink">
<defs><line id="Vline" x1="0" y1="-2200" x2="0" y2="2200" stroke="#eeeeee" /><line id="Hline" x1="-200" y1="0" x2="3100" y2="0" stroke="#eeeeee" /><symbol id="robot-pmx"><circle cx="158" cy="158" r="158" fill="none" stroke="black" /><circle cx="158" cy="158" r="10" fill="none" stroke="black" /></symbol></defs>
<g transform="translate(200,2200)">
<use x="0" y="2200" xlink:href="#Hline" />
<text x="0" y="2200" dx="5" dy="-5" fill="#444444" font-size="12">-2200</text>
<use x="0" y="2100" xlink:href="#Hline" />
<text x="0" y="2100" dx="5" dy="-5" fill="#444444" font-size="12">-2100</text>
<use x="0" y="2000" xlink:href="#Hline" />
<text x="0" y="2000" dx="5" dy="-5" fill="#444444" font-size="12">-2000</text>
<use x="0" y="1900" xlink:href="#Hline" />
<text x="0" y="1900" dx="5" dy="-5" fill="#444444" font-size="12">-1900</text>
<use x="0" y="1800" xlink:href="#Hline" />
<text x="0" y="1800" dx="5" dy="-5" fill="#444444" font-size="12">-1800</text>
<use x="0" y="1700" xlink:href="#Hline" />
<text x="0" y="1700" dx="5" dy="-5" fill="#444444" font-size="12">-1700</text>
<use x="0" y="1600" xlink:href="#Hline" />
<text x="0" y="1600" dx="5" dy="-5" fill="#444444" font-size="12">-1600</text>
<use x="0" y="1500" xlink:href="#Hline" />
<text x="0" y="1500" dx="5" dy="-5" fill="#444444" font-size="12">-1500</text>
<use x="0" y="1400" xlink:href="#Hline" />
<text x="0" y="1400" dx="5" dy="-5" fill="#444444" font-size="12">-1400</text>
<use x="0" y="1300" xlink:href="#Hline" />
<text x="0" y="1300" dx="5" dy="-5" fill="#444444" font-size="12">-1300</text>
<use x="0" y="1200" xlink:href="#Hline" />
<text x="0" y="1200" dx="5" dy="-5" fill="#444444" font-size="12">-1200</text>
<use x="0" y="1100" xlink:href="#Hline" />
<text x="0" y="1100" dx="5" dy="-5" fill="#444444" font-size="12">-1100</text>
<use x="0" y="1000" xlink:href="#Hline" />
<text x="0" y="1000" dx="5" dy="-5" fill="#444444" font-size="12">-1000</text>
<use x="0" y="900" xlink:href="#Hline" />
<text x="0" y="900" dx="5" dy="-5" fill="#444444" font-size="12">-900</text>
<use x="0" y="800" xlink:href="#Hline" />
<text x="0" y="800" dx="5" dy="-5" fill="#444444" font-size="12">-800</text>
<use x="0" y="700" xlink:href="#Hline" />
<text x="0" y="700" dx="5" dy="-5" fill="#444444" font-size="12">-700</text>
<use x="0" y="600" xlink:href="#Hline" />
<text x="0" y="600" dx="5" dy="-5" fill="#444444" font-size="12">-600</text>
<use x="0" y="500" xlink:href="#Hline" />
<text x="0" y="500" dx="5" dy="-5" fill="#444444" font-size="12">-500</text>
<use x="0" y="400" xlink:href="#Hline" />
<text x="0" y="400" dx="5" dy="-5" fill="#444444" font-size="12">-400</text>
<use x="0" y="300" xlink:href="#Hline" />
<text x="0" y="300" dx="5" dy="-5" fill="#444444" font-size="12">-300</text>
<use x="0" y="200" xlink:href="#Hline" />
<text x="0" y="200" dx="5" dy="-5" fill="#444444" font-size="12">-200</text>
<use x="0" y="100" xlink:href="#Hline" />
<text x="0" y="100" dx="5" dy="-5" fill="#444444" font-size="12">-100</text>
<use x="0" y="0" xlink:href="#Hline" />
<text x="0" y="0" dx="5" dy="-5" fill="#444444" font-size="12">0</text>
<use x="0" y="-100" xlink:href="#Hline" />
<text x="0" y="-100" dx="5" dy="-5" fill="#444444" font-size="12">100</text>
<use x="0" y="-200" xlink:href="#Hline" />
<text x="0" y="-200" dx="5" dy="-5" fill="#444444" font-size="12">200</text>
<use x="0" y="-300" xlink:href="#Hline" />
<text x="0" y="-300" dx="5" dy="-5" fill="#444444" font-size="12">300</text>
<use x="0" y="-400" xlink:href="#Hline" />
<text x="0" y="-400" dx="5" dy="-5" fill="#444444" font-size="12">400</text>
<use x="0" y="-500" xlink:href="#Hline" />
<text x="0" y="-500" dx="5" dy="-5" fill="#444444" font-size="12">500</text>
<use x="0" y="-600" xlink:href="#Hline" />
<text x="0" y="-600" dx="5" dy="-5" fill="#444444" font-size="12">600</text>
<use x="0" y="-700" xlink:href="#Hline" />
<text x="0" y="-700" dx="5" dy="-5" fill="#444444" font-size="12">700</text>
<use x="0" y="-800" xlink:href="#Hline" />
<text x="0" y="-800" dx="5" dy="-5" fill="#444444" font-size="12">800</text>
<use x="0" y="-900" xlink:href="#Hline" />
<text x="0" y="-900" dx="5" dy="-5" fill="#444444" font-size="12">900</text>
<use x="0" y="-1000" xlink:href="#Hline" />
<text x="0" y="-1000" dx="5" dy="-5" fill="#444444" font-size="12">1000</text>
<use x="0" y="-1100" xlink:href="#Hline" />
<text x="0" y="-1100" dx="5" dy="-5" fill="#444444" font-size="12">1100</text>
<use x="0" y="-1200" xlink:href="#Hline" />
<text x="0" y="-1200" dx="5" dy="-5" fill="#444444" font-size="12">1200</text>
<use x="0" y="-1300" xlink:href="#Hline" />
<text x="0" y="-1300" dx="5" dy="-5" fill="#444444" font-size="12">1300</text>
<use x="0" y="-1400" xlink:href="#Hline" />
<text x="0" y="-1400" dx="5" dy="-5" fill="#444444" font-size="12">1400</text>
<use x="0" y="-1500" xlink:href="#Hline" />
<text x="0" y="-1500" dx="5" dy="-5" fill="#444444" font-size="12">1500</text>
<use x="0" y="-1600" xlink:href="#Hline" />
<text x="0" y="-1600" dx="5" dy="-5" fill="#444444" font-size="12">1600</text>
<use x="0" y="-1700" xlink:href="#Hline" />
<text x="0" y="-1700" dx="5" dy="-5" fill="#444444" font-size="12">1700</text>
<use x="0" y="-1800" xlink:href="#Hline" />
<text x="0" y="-1800" dx="5" dy="-5" fill="#444444" font-size="12">1800</text>
<use x="0" y="-1900" xlink:href="#Hline" />
<text x="0" y="-1900" dx="5" dy="-5" fill="#444444" font-size="12">1900</text>
<use x="0" y="-2000" xlink:href="#Hline" />
<text x="0" y="-2000" dx="5" dy="-5" fill="#444444" font-size="12">2000</text>
<use x="0" y="-2100" xlink:href="#Hline" />
<text x="0" y="-2100" dx="5" dy="-5" fill="#444444" font-size="12">2100</text>
<use x="0" y="-2200" xlink:href="#Hline" />
<text x="0" y="-2200" dx="5" dy="-5" fill="#444444" font-size="12">2200</text>
<use x="-200" y="0" xlink:href="#Vline" />
<text x="-200" y="0" dx="5" dy="17" fill="#444444" font-size="12">-200</text>
<use x="-100" y="0" xlink:href="#Vline" />
<text x="-100" y="0" dx="5" dy="17" fill="#444444" font-size="12">-100</text>
<use x="0" y="0" xlink:href="#Vline" />
<text x="0" y="0" dx="5" dy="17" fill="#444444" font-size="12">0</text>
<use x="100" y="0" xlink:href="#Vline" />
<text x="100" y="0" dx="5" dy="17" fill="#444444" font-size="12">100</text>
<use x="200" y="0" xlink:href="#Vline" />
<text x="200" y="0" dx="5" dy="17" fill="#444444" font-size="12">200</text>
<use x="300" y="0" xlink:href="#Vline" />
<text x="300" y="0" dx="5" dy="17" fill="#444444" font-size="12">300</text>
<use x="400" y="0" xlink:href="#Vline" />
<text x="400" y="0" dx="5" dy="17" fill="#444444" font-size="12">400</text>
<use x="500" y="0" xlink:href="#Vline" />
<text x="500" y="0" dx="5" dy="17" fill="#444444" font-size="12">500</text>
<use x="600" y="0" xlink:href="#Vline" />
<text x="600" y="0" dx="5" dy="17" fill="#444444" font-size="12">600</text>
<use x="700" y="0" xlink:href="#Vline" />
<text x="700" y="0" dx="5" dy="17" fill="#444444" font-size="12">700</text>
<use x="800" y="0" xlink:href="#Vline" />
<text x="800" y="0" dx="5" dy="17" fill="#444444" font-size="12">800</text>
<use x="900" y="0" xlink:href="#Vline" />
<text x="900" y="0" dx="5" dy="17" fill="#444444" font-size="12">900</text>
<use x="1000" y="0" xlink:href="#Vline" />
<text x="1000" y="0" dx="5" dy="17" fill="#444444" font-size="12">1000</text>
<use x="1100" y="0" xlink:href="#Vline" />
<text x="1100" y="0" dx="5" dy="17" fill="#444444" font-size="12">1100</text>
<use x="1200" y="0" xlink:href="#Vline" />
<text x="1200" y="0" dx="5" dy="17" fill="#444444" font-size="12">1200</text>
<use x="1300" y="0" xlink:href="#Vline" />
<text x="1300" y="0" dx="5" dy="17" fill="#444444" font-size="12">1300</text>
<use x="1400" y="0" xlink:href="#Vline" />
<text x="1400" y="0" dx="5" dy="17" fill="#444444" font-size="12">1400</text>
<use x="1500" y="0" xlink:href="#Vline" />
<text x="1500" y="0" dx="5" dy="17" fill="#444444" font-size="12">1500</text>
<use x="1600" y="0" xlink:href="#Vline" />
<text x="1600" y="0" dx="5" dy="17" fill="#444444" font-size="12">1600</text>
<use x="1700" y="0" xlink:href="#Vline" />
<text x="1700" y="0" dx="5" dy="17" fill="#444444" font-size="12">1700</text>
<use x="1800" y="0" xlink:href="#Vline" />
<text x="1800" y="0" dx="5" dy="17" fill="#444444" font-size="12">1800</text>
<use x="1900" y="0" xlink:href="#Vline" />
<text x="1900" y="0" dx="5" dy="17" fill="#444444" font-size="12">1900</text>
<use x="2000" y="0" xlink:href="#Vline" />
<text x="2000" y="0" dx="5" dy="17" fill="#444444" font-size="12">2000</text>
<use x="2100" y="0" xlink:href="#Vline" />
<text x="2100" y="0" dx="5" dy="17" fill="#444444" font-size="12">2100</text>
<use x="2200" y="0" xlink:href="#Vline" />
<text x="2200" y="0" dx="5" dy="17" fill="#444444" font-size="12">2200</text>
<use x="2300" y="0" xlink:href="#Vline" />
<text x="2300" y="0" dx="5" dy="17" fill="#444444" font-size="12">2300</text>
<use x="2400" y="0" xlink:href="#Vline" />
<text x="2400" y="0" dx="5" dy="17" fill="#444444" font-size="12">2400</text>
<use x="2500" y="0" xlink:href="#Vline" />
<text x="2500" y="0" dx="5" dy="17" fill="#444444" font-size="12">2500</text>
<use x="2600" y="0" xlink:href="#Vline" />
<text x="2600" y="0" dx="5" dy="17" fill="#444444" font-size="12">2600</text>
<use x="2700" y="0" xlink:href="#Vline" />
<text x="2700" y="0" dx="5" dy="17" fill="#444444" font-size="12">2700</text>
<use x="2800" y="0" xlink:href="#Vline" />
<text x="2800" y="0" dx="5" dy="17" fill="#444444" font-size="12">2800</text>
<use x="2900" y="0" xlink:href="#Vline" />
<text x="2900" y="0" dx="5" dy="17" fill="#444444" font-size="12">2900</text>
<use x="3000" y="0" xlink:href="#Vline" />
<text x="3000" y="0" dx="5" dy="17" fill="#444444" font-size="12">3000</text>
<use x="3100" y="0" xlink:href="#Vline" />
<text x="3100" y="0" dx="5" dy="17" fill="#444444" font-size="12">3100</text>
</g>
<g transform="translate(200,2200)">
<circle cx="0" cy="-0" r="1" fill="green" />
<line x1="0" y1="-0" x2="25" y2="-0" stroke-width="0.1" stroke="grey"  />
<circle cx="0" cy="-0" r="1" fill="green" />
<line x1="0" y1="-0" x2="25" y2="-0" stroke-width="0.1" stroke="grey"  />
<circle cx="0" cy="-0" r="1" fill="green" />
<line x1="0" y1="-0" x2="25" y2="-0" stroke-width="0.1" stroke="grey"  />
<circle cx="0" cy="-0" r="1" fill="green" />
<line x1="0" y1="-0" x2="25" y2="-0" stroke-width="0.1" stroke="grey"  />
<circle cx="0" cy="-0" r="1" fill="green" />
<line x1="0" y1="-0" x2="25" y2="-0" stroke-width="0.1" stroke="grey"  />
<circle cx="0" cy="-0" r="1" fill="green" />
<line x1="0" y1="-0" x2="25" y2="-0" stroke-width="0.1" stroke="grey"  />
<circle cx="0" cy="-0" r="1" fill="green" />
<line x1="0" y1="-0" x2="25" y2="-0" stroke-width="0.1" stroke="grey"  />
<circle cx="0" cy="-0" r="1" fill="green" />
<line x1="0" y1="-0" x2="25" y2="-0" stroke-width="0.1" stroke="grey"  />
<circle cx="0" cy="-0" r="1" fill="green" />
<line x1="0" y1="-0" x2="25" y2="-0" stroke-width="0.1" stroke="grey"  />
<circle cx="0" cy="-0" r="1" fill="green" />
<line x1="0" y1="-0" x2="25" y2="-0" stroke-width="0.1" stroke="grey"  />
<circle cx="0" cy="-0" r="1" fill="green" />
<line x1="0" y1="-0" x2="25" y2="-0" stroke-width="0.1" stroke="grey"  />
<circle cx="0" cy="-0" r="1" fill="green" />
<line x1="0" y1="-0" x2="25" y2="-0" stroke-width="0.1" stroke="grey"  />
<circle cx="0" cy="-0" r="1" fill="green" />
<line x1="0" y1="-0" x2="25" y2="-0" stroke-width="0.1" stroke="grey"  />
<circle cx="0" cy="-0" r="1" fill="green" />
<line x1="0" y1="-0" x2="25" y2="-0" stroke-width="0.1" stroke="grey"  />
<circle cx="0" cy="-0" r="1" fill="green" />
<line x1="0" y1="-0" x2="25" y2="-0" stroke-width="0.1" stroke="grey"  />
<circle cx="0" cy="-0" r="1" fill="green" />
<line x1="0" y1="-0" x2="25" y2="-0" stroke-width="0.1" stroke="grey"  />
<circle cx="0" cy="-0" r="1" fill="green" />
<line x1="0" y1="-0" x2="25" y2="-0" stroke-width="0.1" stroke="grey"  />
<circle cx="0" cy="-0" r="1" fill="green" />
<line x1="0" y1="-0" x2="25" y2="-0" stroke-width="0.1" stroke="grey"  />
<circle cx="0" cy="-0" r="1" fill="green" />
<line x1="0" y1="-0" x2="25" y2="-0" stroke-width="0.1" stroke="grey"  />
<circle cx="0.440141" cy="-0.00129149" r="1" fill="green" />
<line x1="0.440141" y1="-0.00129149" x2="25.44" y2="-0.0746482" stroke-width="0.1" stroke="grey"  />
<circle cx="0.440141" cy="-0.00129149" r="1" fill="green" />
<line x1="0.440141" y1="-0.00129149" x2="25.44" y2="-0.0746482" stroke-width="0.1" stroke="grey"  />
<circle cx="0.440141" cy="-0.00129149" r="1" fill="green" />
<line x1="0.440141" y1="-0.00129149" x2="25.44" y2="-0.0746482" stroke-width="0.1" stroke="grey"  />
<circle cx="0.440141" cy="-0.00129149" r="1" fill="green" />
<line x1="0.440141" y1="-0.00129149" x2="25.44" y2="-0.0746482" stroke-width="0.1" stroke="grey"  />
<circle cx="0.440141" cy="-0.00129149" r="1" fill="green" />
<line x1="0.440141" y1="-0.00129149" x2="25.44" y2="-0.0746482" stroke-width="0.1" stroke="grey"  />
<circle cx="0.880285" cy="-0.00129149" r="1" fill="green" />
<line x1="0.880285" y1="-0.00129149" x2="25.8803" y2="-0.00129149" stroke-width="0.1" stroke="grey"  />
<circle cx="0.880285" cy="-0.00129149" r="1" fill="green" />
<line x1="0.880285" y1="-0.00129149" x2="25.8803" y2="-0.00129149" stroke-width="0.1" stroke="grey"  />
<circle cx="1.32043" cy="-0.002583" r="1" fill="green" />
<line x1="1.32043" y1="-0.002583" x2="26.3203" y2="-0.0759397" stroke-width="0.1" stroke="grey"  />
<circle cx="1.76058" cy="-0.002583" r="1" fill="green" />
<line x1="1.76058" y1="-0.002583" x2="26.7606" y2="-0.002583" stroke-width="0.1" stroke="grey"  />
<circle cx="2.20073" cy="-0.00387451" r="1" fill="green" />
<line x1="2.20073" y1="-0.00387451" x2="27.2006" y2="-0.0772312" stroke-width="0.1" stroke="grey"  />
<circle cx="3.08102" cy="-0.00645754" r="1" fill="green" />
<line x1="3.08102" y1="-0.00645754" x2="28.0809" y2="-0.0798142" stroke-width="0.1" stroke="grey"  />
<circle cx="3.08102" cy="-0.00645754" r="1" fill="green" />
<line x1="3.08102" y1="-0.00645754" x2="28.0809" y2="-0.0798142" stroke-width="0.1" stroke="grey"  />
<circle cx="4.40148" cy="-0.00645754" r="1" fill="green" />
<line x1="4.40148" y1="-0.00645754" x2="29.4015" y2="-0.00645754" stroke-width="0.1" stroke="grey"  />
<circle cx="5.28178" cy="-0.00645754" r="1" fill="green" />
<line x1="5.28178" y1="-0.00645754" x2="30.2818" y2="-0.00645754" stroke-width="0.1" stroke="grey"  />
<circle cx="6.60224" cy="-0.0103321" r="1" fill="green" />
<line x1="6.60224" y1="-0.0103321" x2="31.6021" y2="-0.0836888" stroke-width="0.1" stroke="grey"  />
<circle cx="7.48254" cy="-0.0129152" r="1" fill="green" />
<line x1="7.48254" y1="-0.0129152" x2="32.4824" y2="-0.0862719" stroke-width="0.1" stroke="grey"  />
<circle cx="9.24315" cy="-0.0180813" r="1" fill="green" />
<line x1="9.24315" y1="-0.0180813" x2="34.243" y2="-0.091438" stroke-width="0.1" stroke="grey"  />
<circle cx="10.1235" cy="-0.0206643" r="1" fill="green" />
<line x1="10.1235" y1="-0.0206643" x2="35.1234" y2="-0.094021" stroke-width="0.1" stroke="grey"  />
<circle cx="11.8841" cy="-0.0258304" r="1" fill="green" />
<line x1="11.8841" y1="-0.0258304" x2="36.884" y2="-0.0991871" stroke-width="0.1" stroke="grey"  />
<circle cx="13.6447" cy="-0.0309965" r="1" fill="green" />
<line x1="13.6447" y1="-0.0309965" x2="38.6446" y2="-0.104353" stroke-width="0.1" stroke="grey"  />
<circle cx="15.4053" cy="-0.0361627" r="1" fill="green" />
<line x1="15.4053" y1="-0.0361627" x2="40.4052" y2="-0.109519" stroke-width="0.1" stroke="grey"  />
<circle cx="17.1659" cy="-0.0413288" r="1" fill="green" />
<line x1="17.1659" y1="-0.0413288" x2="42.1658" y2="-0.114685" stroke-width="0.1" stroke="grey"  />
<circle cx="19.3666" cy="-0.054244" r="1" fill="green" />
<line x1="19.3666" y1="-0.054244" x2="44.3662" y2="-0.200957" stroke-width="0.1" stroke="grey"  />
<circle cx="21.5674" cy="-0.0607017" r="1" fill="green" />
<line x1="21.5674" y1="-0.0607017" x2="46.5673" y2="-0.134058" stroke-width="0.1" stroke="grey"  />
<circle cx="23.7682" cy="-0.0607017" r="1" fill="green" />
<line x1="23.7682" y1="-0.0607017" x2="48.7682" y2="-0.0607017" stroke-width="0.1" stroke="grey"  />
<circle cx="25.969" cy="-0.0671595" r="1" fill="green" />
<line x1="25.969" y1="-0.0671595" x2="50.9689" y2="-0.140516" stroke-width="0.1" stroke="grey"  />
<circle cx="27.7296" cy="-0.0723257" r="1" fill="green" />
<line x1="27.7296" y1="-0.0723257" x2="52.7295" y2="-0.145682" stroke-width="0.1" stroke="grey"  />
<circle cx="29.4903" cy="-0.0774918" r="1" fill="green" />
<line x1="29.4903" y1="-0.0774918" x2="54.4902" y2="-0.150849" stroke-width="0.1" stroke="grey"  />
<circle cx="31.6911" cy="-0.0774918" r="1" fill="green" />
<line x1="31.6911" y1="-0.0774918" x2="56.6911" y2="-0.0774918" stroke-width="0.1" stroke="grey"  />
<circle cx="33.4518" cy="-0.0774918" r="1" fill="green" />
<line x1="33.4518" y1="-0.0774918" x2="58.4518" y2="-0.0774918" stroke-width="0.1" stroke="grey"  />
<circle cx="35.6526" cy="-0.0839496" r="1" fill="green" />
<line x1="35.6526" y1="-0.0839496" x2="60.6525" y2="-0.157306" stroke-width="0.1" stroke="grey"  />
<circle cx="37.8534" cy="-0.0839496" r="1" fill="green" />
<line x1="37.8534" y1="-0.0839496" x2="62.8534" y2="-0.0839496" stroke-width="0.1" stroke="grey"  />
<circle cx="39.1739" cy="-0.0800749" r="1" fill="green" />
<line x1="39.1739" y1="-0.0800749" x2="64.1738" y2="-0.00671823" stroke-width="0.1" stroke="grey"  />
<circle cx="41.3748" cy="-0.0800749" r="1" fill="green" />
<line x1="41.3748" y1="-0.0800749" x2="66.3748" y2="-0.0800749" stroke-width="0.1" stroke="grey"  />
<circle cx="42.2551" cy="-0.0800749" r="1" fill="green" />
<line x1="42.2551" y1="-0.0800749" x2="67.2551" y2="-0.0800749" stroke-width="0.1" stroke="grey"  />
<circle cx="44.0158" cy="-0.0800749" r="1" fill="green" />
<line x1="44.0158" y1="-0.0800749" x2="69.0158" y2="-0.0800749" stroke-width="0.1" stroke="grey"  />
<circle cx="45.7765" cy="-0.0800749" r="1" fill="green" />
<line x1="45.7765" y1="-0.0800749" x2="70.7765" y2="-0.0800749" stroke-width="0.1" stroke="grey"  />
<circle cx="47.5372" cy="-0.0800749" r="1" fill="green" />
<line x1="47.5372" y1="-0.0800749" x2="72.5372" y2="-0.0800749" stroke-width="0.1" stroke="grey"  />
<circle cx="48.4175" cy="-0.0800749" r="1" fill="green" />
<line x1="48.4175" y1="-0.0800749" x2="73.4175" y2="-0.0800749" stroke-width="0.1" stroke="grey"  />
<circle cx="50.1782" cy="-0.0800749" r="1" fill="green" />
<line x1="50.1782" y1="-0.0800749" x2="75.1782" y2="-0.0800749" stroke-width="0.1" stroke="grey"  />
<circle cx="51.9389" cy="-0.0800749" r="1" fill="green" />
<line x1="51.9389" y1="-0.0800749" x2="76.9389" y2="-0.0800749" stroke-width="0.1" stroke="grey"  />
<circle cx="53.2594" cy="-0.0839497" r="1" fill="green" />
<line x1="53.2594" y1="-0.0839497" x2="78.2593" y2="-0.157306" stroke-width="0.1" stroke="grey"  />
<circle cx="54.5799" cy="-0.0839497" r="1" fill="green" />
<line x1="54.5799" y1="-0.0839497" x2="79.5799" y2="-0.0839497" stroke-width="0.1" stroke="grey"  />
<circle cx="56.3406" cy="-0.0839497" r="1" fill="green" />
<line x1="56.3406" y1="-0.0839497" x2="81.3406" y2="-0.0839497" stroke-width="0.1" stroke="grey"  />
<circle cx="58.1013" cy="-0.0839497" r="1" fill="green" />
<line x1="58.1013" y1="-0.0839497" x2="83.1013" y2="-0.0839497" stroke-width="0.1" stroke="grey"  />
<circle cx="59.862" cy="-0.0839497" r="1" fill="green" />
<line x1="59.862" y1="-0.0839497" x2="84.862" y2="-0.0839497" stroke-width="0.1" stroke="grey"  />
<circle cx="62.0629" cy="-0.0904076" r="1" fill="green" />
<line x1="62.0629" y1="-0.0904076" x2="87.0628" y2="-0.163764" stroke-width="0.1" stroke="grey"  />
<circle cx="63.8236" cy="-0.095574" r="1" fill="green" />
<line x1="63.8236" y1="-0.095574" x2="88.8235" y2="-0.168931" stroke-width="0.1" stroke="grey"  />
<circle cx="66.0245" cy="-0.095574" r="1" fill="green" />
<line x1="66.0245" y1="-0.095574" x2="91.0245" y2="-0.095574" stroke-width="0.1" stroke="grey"  />
<circle cx="68.6656" cy="-0.095574" r="1" fill="green" />
<line x1="68.6656" y1="-0.095574" x2="93.6656" y2="-0.095574" stroke-width="0.1" stroke="grey"  />
<circle cx="70.4263" cy="-0.095574" r="1" fill="green" />
<line x1="70.4263" y1="-0.095574" x2="95.4263" y2="-0.095574" stroke-width="0.1" stroke="grey"  />
<circle cx="73.0673" cy="-0.095574" r="1" fill="green" />
<line x1="73.0673" y1="-0.095574" x2="98.0673" y2="-0.095574" stroke-width="0.1" stroke="grey"  />
<circle cx="75.7084" cy="-0.095574" r="1" fill="green" />
<line x1="75.7084" y1="-0.095574" x2="100.708" y2="-0.095574" stroke-width="0.1" stroke="grey"  />
<circle cx="78.3495" cy="-0.095574" r="1" fill="green" />
<line x1="78.3495" y1="-0.095574" x2="103.349" y2="-0.095574" stroke-width="0.1" stroke="grey"  />
<circle cx="80.5504" cy="-0.089116" r="1" fill="green" />
<line x1="80.5504" y1="-0.089116" x2="105.55" y2="-0.0157593" stroke-width="0.1" stroke="grey"  />
<circle cx="83.1914" cy="-0.0813664" r="1" fill="green" />
<line x1="83.1914" y1="-0.0813664" x2="108.191" y2="-0.00800967" stroke-width="0.1" stroke="grey"  />
<circle cx="85.8325" cy="-0.0736167" r="1" fill="green" />
<line x1="85.8325" y1="-0.0736167" x2="110.832" y2="-0.000260037" stroke-width="0.1" stroke="grey"  />
<circle cx="88.4736" cy="-0.0658671" r="1" fill="green" />
<line x1="88.4736" y1="-0.0658671" x2="113.473" y2="0.00748959" stroke-width="0.1" stroke="grey"  />
<circle cx="90.6745" cy="-0.0529511" r="1" fill="green" />
<line x1="90.6745" y1="-0.0529511" x2="115.674" y2="0.0937617" stroke-width="0.1" stroke="grey"  />
<circle cx="92.4352" cy="-0.0426182" r="1" fill="green" />
<line x1="92.4352" y1="-0.0426182" x2="117.435" y2="0.104095" stroke-width="0.1" stroke="grey"  />
</g>
</svg>
